<?xml version="1.0" standalone="no"?>
<!DOCTYPE svg PUBLIC "-//W3C//DTD SVG 20010904//EN"
 "http://www.w3.org/TR/2001/REC-SVG-20010904/DTD/svg10.dtd">
<svg version="1.0" xmlns="http://www.w3.org/2000/svg"
 width="600.000000pt" height="128.000000pt" viewBox="0 0 600.000000 128.000000"
 preserveAspectRatio="xMidYMid meet">
<g transform="translate(0.000000,128.000000) scale(0.100000,-0.100000)"
fill="#000000" stroke="none">
<path d="M4912 1041 c2 -92 0 -117 -9 -114 -10 4 -13 -26 -13 -128 0 -74 -3
-143 -6 -155 -3 -12 -18 -24 -37 -30 -24 -7 -44 -28 -84 -89 -81 -121 -89
-141 -92 -222 -2 -85 8 -109 48 -118 16 -3 32 -13 35 -21 8 -20 172 -16 169 3
-2 10 70 13 336 13 292 0 340 -2 345 -15 8 -22 166 -22 166 0 0 12 -17 15 -82
17 l-83 2 80 6 c44 3 -112 7 -347 8 -280 1 -428 -1 -428 -8 0 -5 -5 -10 -11
-10 -5 0 -7 5 -4 10 4 6 -23 10 -72 11 -87 0 -115 8 -119 31 -2 14 4 14 41 -3
41 -18 68 -19 522 -15 263 2 485 6 494 8 9 2 27 11 40 20 l24 17 -22 0 c-26 1
-21 31 6 32 12 0 11 3 -6 16 -13 8 -23 20 -23 25 0 6 8 4 18 -3 15 -13 16 -12
3 4 -7 9 -20 17 -28 17 -9 0 -13 6 -9 15 7 18 65 16 -554 16 -451 -1 -496 -2
-507 -18 -7 -9 -16 -14 -19 -10 -13 13 136 247 156 247 9 0 -15 -47 -31 -60
-8 -7 -89 -130 -89 -136 0 -2 7 -4 15 -4 8 0 15 7 15 16 0 14 23 48 64 96 8 9
17 27 21 40 13 40 52 68 96 68 22 0 39 -5 39 -11 0 -6 8 -8 18 -5 14 5 13 3
-3 -10 l-20 -17 20 9 c11 5 54 10 95 11 41 1 91 4 110 8 32 6 31 5 -15 -19
-27 -14 -93 -45 -145 -69 -52 -24 -124 -58 -160 -75 -36 -16 -72 -32 -80 -35
-8 -3 202 -6 467 -6 265 -1 487 -3 495 -6 7 -3 19 5 27 17 14 23 14 23 -8 4
-12 -11 -21 -14 -21 -7 0 9 -110 10 -452 6 l-453 -5 49 25 c27 13 54 22 60 18
6 -3 8 -3 4 2 -9 10 62 46 75 38 6 -3 7 -1 3 5 -4 7 -2 12 3 12 6 0 39 13 74
30 86 41 147 61 147 49 0 -5 10 -7 23 -4 37 8 248 14 243 7 -6 -9 56 -9 71 1
6 4 14 2 16 -3 3 -6 4 -5 3 1 -4 20 -31 23 -343 26 -257 3 -303 6 -303 18 0 8
-4 15 -10 15 -6 0 -10 34 -10 83 0 45 -3 160 -7 255 -5 138 -9 172 -20 172
-12 0 -14 -22 -11 -119z m13 -268 c0 -108 -3 -137 -14 -141 -10 -3 -12 0 -8
12 4 10 7 74 7 142 0 68 3 124 8 124 4 0 7 -62 7 -137z m662 -179 c-3 -3 -12
-4 -19 -1 -8 3 -5 6 6 6 11 1 17 -2 13 -5z m-813 -236 c-3 -4 -11 -5 -18 -2
-9 3 -13 -1 -13 -12 1 -10 -6 -20 -15 -22 -13 -2 -18 3 -18 18 0 12 4 19 9 15
5 -3 12 -1 16 4 3 5 14 9 25 8 10 -1 17 -5 14 -9z m489 5 c-13 -2 -33 -2 -45
0 -13 2 -3 4 22 4 25 0 35 -2 23 -4z m502 -78 l0 -50 -502 -3 -503 -2 0 48 c0
27 3 52 7 55 3 4 230 6 502 5 l496 -3 0 -50z m-1022 -10 c1 -5 -6 -11 -15 -13
-11 -2 -18 3 -18 13 0 17 30 18 33 0z m-56 -27 c-3 -8 -6 -5 -6 6 -1 11 2 17
5 13 3 -3 4 -12 1 -19z m166 -65 c-18 -2 -48 -2 -65 0 -18 2 -4 4 32 4 36 0
50 -2 33 -4z"/>
<path d="M4946 312 c-10 -16 6 -51 20 -45 8 3 14 0 14 -6 0 -18 35 -13 58 9
38 36 29 50 -32 50 -30 0 -57 -4 -60 -8z"/>
<path d="M5118 308 c-7 -19 1 -38 18 -38 8 0 14 -4 14 -10 0 -5 11 -10 25 -10
14 0 25 5 25 10 0 6 6 10 14 10 12 0 31 28 24 35 -2 2 -28 6 -59 10 -43 5 -57
4 -61 -7z"/>
<path d="M5290 311 c0 -17 46 -61 65 -61 8 0 15 5 15 10 0 6 6 10 14 10 13 0
31 28 23 36 -2 2 -29 6 -60 10 -41 5 -57 3 -57 -5z m76 -23 c4 -7 3 -8 -4 -4
-7 4 -12 2 -12 -4 0 -6 -5 -8 -11 -4 -8 4 -7 9 2 15 18 11 17 11 25 -3z"/>
<path d="M5462 308 c4 -18 45 -58 60 -58 15 0 68 44 68 56 0 5 -29 10 -65 12
-49 2 -65 0 -63 -10z"/>
<path d="M4817 294 c-9 -10 4 -34 19 -34 8 0 11 6 7 18 -5 14 -3 13 10 -3 16
-20 16 -20 17 3 0 16 -6 22 -23 22 -13 0 -26 -3 -30 -6z"/>
<path d="M5662 280 c0 -14 2 -19 5 -12 2 6 2 18 0 25 -3 6 -5 1 -5 -13z"/>
<path d="M5682 280 c0 -14 2 -19 5 -12 2 6 2 18 0 25 -3 6 -5 1 -5 -13z"/>
<path d="M5702 280 c0 -14 2 -19 5 -12 2 6 2 18 0 25 -3 6 -5 1 -5 -13z"/>
<path d="M5590 1047 c0 -64 -4 -117 -9 -119 -5 -2 -11 -72 -13 -156 -2 -120 0
-152 10 -152 7 0 11 4 8 9 -4 5 -2 20 3 33 9 21 10 21 10 -9 1 -26 5 -33 21
-33 33 0 71 -23 86 -52 8 -15 19 -28 24 -28 6 0 10 -5 10 -11 0 -5 -6 -7 -12
-3 -9 5 -9 3 1 -9 7 -9 17 -14 22 -11 5 3 6 -3 2 -12 -4 -10 -2 -15 3 -11 6 3
9 -6 8 -22 -1 -21 3 -28 15 -27 11 1 15 -6 13 -23 -2 -15 0 -21 8 -16 6 4 17
1 25 -5 19 -15 21 -37 3 -23 -14 11 -48 13 -48 4 0 -4 9 -12 21 -19 15 -10 19
-10 14 -1 -5 8 -4 10 3 5 15 -9 16 -76 1 -76 -8 0 -8 -5 1 -15 16 -20 6 -43
-25 -57 -14 -6 -25 -15 -25 -20 0 -14 34 -9 59 8 21 15 22 22 19 90 -2 41 0
74 5 74 11 0 -17 51 -85 157 -45 69 -66 93 -86 98 -42 9 -52 44 -52 185 0 70
-3 130 -7 134 -5 5 -8 55 -8 114 0 75 -4 106 -12 109 -10 4 -13 -23 -13 -110z
m11 -150 c-10 -9 -11 -8 -5 6 3 10 9 15 12 12 3 -3 0 -11 -7 -18z m-4 -139
c-2 -24 -4 -5 -4 42 0 47 2 66 4 43 2 -24 2 -62 0 -85z"/>
<path d="M541 1073 c-9 -16 -12 -16 -21 -3 -9 13 -11 13 -20 0 -14 -22 -12
-28 9 -40 14 -7 22 -7 27 2 4 7 3 8 -4 4 -7 -4 -12 -2 -12 4 0 7 7 9 17 6 17
-7 33 9 33 32 0 18 -17 15 -29 -5z"/>
<path d="M593 1083 c-19 -7 -16 -33 5 -40 9 -4 20 -11 24 -17 4 -6 10 -7 15
-3 4 5 1 12 -6 16 -9 6 -10 11 -2 15 14 9 14 26 1 26 -5 0 -10 -7 -10 -15 0
-8 -5 -15 -11 -15 -6 0 -8 9 -4 20 3 11 5 20 3 19 -2 0 -9 -3 -15 -6z"/>
<path d="M772 1073 c2 -9 9 -18 16 -21 18 -6 15 25 -4 32 -11 4 -14 1 -12 -11z"/>
<path d="M812 1067 c2 -13 10 -22 20 -22 9 0 20 -4 24 -8 21 -21 32 5 14 33
-9 13 -11 13 -20 0 -5 -8 -10 -10 -10 -4 0 7 -7 15 -16 18 -12 4 -15 0 -12
-17z"/>
<path d="M730 1071 c0 -6 5 -13 10 -16 8 -5 8 -11 0 -20 -8 -10 -4 -14 17 -18
16 -3 30 -1 31 4 2 5 8 9 13 9 4 0 6 -7 3 -15 -8 -19 19 -20 35 -2 12 15 4 17
-54 18 -16 1 -25 3 -18 6 8 3 7 10 -5 24 -18 20 -32 25 -32 10z"/>
<path d="M900 1075 c-6 -46 -6 -57 3 -62 20 -12 29 15 13 43 -8 16 -16 25 -16
19z"/>
<path d="M455 1051 c-8 -27 3 -63 18 -58 13 4 11 57 -3 71 -4 4 -11 -1 -15
-13z"/>
<path d="M4165 1059 c-79 -22 -155 -128 -163 -226 -4 -45 -1 -55 21 -77 20
-20 36 -26 71 -26 25 0 56 5 70 11 30 14 80 82 74 101 -3 8 -12 0 -21 -19 -23
-44 -64 -73 -103 -73 -73 0 -82 83 -21 202 21 42 43 69 65 81 43 25 80 16 87
-21 4 -15 8 -37 11 -50 4 -22 7 -20 44 24 41 50 43 68 7 58 -13 -3 -36 2 -52
10 -33 18 -46 18 -90 5z m134 -59 c-33 -41 -39 -46 -39 -32 0 8 59 72 67 72 2
0 -11 -18 -28 -40z"/>
<path d="M640 1050 c0 -5 5 -10 10 -10 6 0 10 5 10 10 0 6 -4 10 -10 10 -5 0
-10 -4 -10 -10z"/>
<path d="M715 1050 c-3 -5 1 -10 10 -10 9 0 13 5 10 10 -3 6 -8 10 -10 10 -2
0 -7 -4 -10 -10z"/>
<path d="M1384 1048 c-2 -3 1 -8 8 -10 18 -6 -76 -268 -105 -291 -21 -17 -20
-17 63 -13 134 5 197 48 234 159 21 63 20 100 -3 128 -17 21 -30 25 -106 29
-48 3 -89 2 -91 -2z m150 -34 c9 -8 16 -25 16 -37 0 -36 -29 -119 -54 -158
-31 -46 -124 -92 -114 -56 2 6 21 65 43 129 33 100 42 118 62 121 19 4 18 4
-3 3 -25 -1 -30 -9 -72 -133 -25 -73 -49 -133 -53 -133 -6 0 47 164 86 268 6
17 71 15 89 -4z m28 -116 c-6 -6 -7 0 -4 19 5 21 7 23 10 9 2 -10 0 -22 -6
-28z"/>
<path d="M1694 1051 c-2 -2 1 -10 7 -17 18 -22 -69 -268 -101 -288 -24 -15
-23 -16 38 -13 34 2 62 0 62 -4 0 -5 -28 -10 -62 -12 l-63 -3 73 -2 c39 -1 72
0 72 3 0 3 -5 14 -12 24 -10 16 -5 39 26 133 21 62 46 125 56 139 10 14 15 30
12 35 -7 9 -100 13 -108 5z m95 -24 c-9 -7 -37 -72 -61 -144 -25 -73 -48 -130
-51 -127 -7 8 75 247 92 268 7 9 19 16 25 16 6 0 4 -6 -5 -13z"/>
<path d="M1975 1040 c7 -21 -52 -100 -69 -94 -8 3 -24 -5 -35 -18 -19 -20 -20
-24 -7 -34 13 -9 10 -18 -22 -62 -20 -28 -55 -62 -77 -76 l-39 -26 69 -2 70
-1 -65 -7 -65 -7 72 -1 71 -2 -11 31 c-10 26 -9 36 12 71 12 22 18 37 12 34
-6 -4 -11 -3 -11 3 0 26 20 17 31 -14 7 -19 17 -35 22 -35 4 0 5 -6 1 -12 -4
-7 5 -2 19 11 15 14 25 27 22 29 -2 3 7 18 21 35 15 18 23 38 21 49 -3 10 -1
16 3 13 5 -3 8 -19 8 -35 -1 -16 -5 -27 -9 -24 -14 8 -23 -19 -20 -60 2 -32
-3 -44 -21 -58 -23 -17 -22 -17 37 -17 87 1 91 -4 10 -11 -57 -5 -44 -7 72 -8
l143 -2 -12 25 c-7 16 -14 21 -18 14 -6 -8 -9 -8 -14 0 -8 13 70 257 85 266 5
4 9 0 9 -9 0 -8 -4 -16 -9 -18 -12 -4 -13 -29 -12 -155 1 -57 4 -103 9 -103 4
0 20 20 35 45 31 49 56 72 37 34 -9 -19 -6 -18 13 6 33 39 63 90 48 81 -6 -4
-11 -4 -11 -1 0 10 57 90 74 104 9 7 13 18 9 25 -3 6 0 5 8 -3 11 -10 11 -15
1 -18 -6 -3 -9 -10 -6 -15 4 -6 3 -8 -3 -5 -12 8 -36 -40 -68 -140 -16 -52
-34 -87 -48 -97 -21 -14 -20 -15 31 -15 47 -1 66 9 44 23 -13 8 76 259 98 278
19 15 18 16 -35 20 -50 3 -54 1 -49 -17 3 -13 -15 -47 -56 -104 l-60 -84 0 86
c0 78 2 86 21 92 39 13 -6 30 -67 27 -42 -3 -53 -7 -45 -16 10 -12 1 -44 -65
-224 -10 -27 -28 -51 -48 -64 l-31 -20 40 5 c22 2 49 1 60 -4 13 -5 1 -8 -39
-8 -45 -1 -62 3 -72 17 -7 9 -18 17 -26 17 -16 0 -25 134 -8 136 5 1 16 2 23
3 6 1 11 10 9 20 -2 11 1 15 7 11 6 -3 11 -15 11 -26 0 -14 -7 -19 -25 -19
-24 0 -25 -3 -25 -55 0 -30 3 -55 8 -55 4 0 5 22 4 50 -4 48 -3 50 22 50 22 0
26 4 26 29 0 28 -22 47 -40 36 -4 -3 -10 14 -12 37 -3 32 1 46 17 61 17 17 17
19 3 14 -10 -4 -18 -3 -18 1 0 4 -22 7 -50 7 -40 0 -49 -3 -45 -15z m87 -16
c-5 -9 -7 -36 -4 -60 2 -28 0 -44 -7 -44 -12 0 -16 102 -4 113 13 14 24 7 15
-9z m286 5 c-15 -8 -18 -25 -18 -109 0 -54 -4 -101 -9 -105 -6 -3 -10 36 -10
99 0 89 2 107 17 115 9 6 22 10 27 10 6 0 2 -4 -7 -10z m-327 -12 c-5 -5 -7
-17 -4 -26 4 -14 3 -14 -6 -1 -15 21 -14 37 4 37 10 0 12 -4 6 -10z m-28 -83
c3 -41 0 -53 -14 -62 -15 -10 -20 -8 -29 8 -9 17 -6 27 12 53 15 21 17 27 5
18 -22 -17 -22 -7 0 26 19 29 20 28 26 -43z m480 1 c-3 -9 -8 -14 -10 -11 -3
3 -2 9 2 15 9 16 15 13 8 -4z m-568 -5 c3 -5 1 -10 -4 -10 -6 0 -11 5 -11 10
0 6 2 10 4 10 3 0 8 -4 11 -10z m36 -14 c-9 -11 -10 -20 -1 -36 6 -12 10 -26
7 -33 -2 -6 -11 4 -20 23 -16 31 -16 35 0 52 19 21 32 16 14 -6z m443 -60 c-9
-15 -19 -25 -21 -22 -3 2 3 16 13 30 9 15 19 25 21 22 3 -2 -3 -16 -13 -30z
m-518 -48 c-9 -12 -16 -31 -16 -41 0 -10 -4 -16 -10 -12 -10 6 3 49 22 72 18
22 21 6 4 -19z m94 7 c-7 -9 -15 -13 -19 -10 -3 3 1 10 9 15 21 14 24 12 10
-5z m337 -17 c-3 -8 -6 -5 -6 6 -1 11 2 17 5 13 3 -3 4 -12 1 -19z m-264 -28
c3 -11 1 -18 -4 -14 -5 3 -9 12 -9 20 0 20 7 17 13 -6z"/>
<path d="M2933 1048 c-2 -5 1 -8 6 -8 18 0 13 -25 -23 -128 -46 -132 -56 -151
-85 -167 -25 -14 -23 -14 34 -16 l60 -2 -65 -7 -65 -7 73 -1 c44 -1 72 2 72 8
0 6 -7 13 -15 16 -8 4 -12 10 -9 15 3 5 0 8 -8 7 -19 -4 -13 31 25 146 32 98
48 123 61 90 6 -15 4 -15 -10 -3 -16 13 -17 11 -12 -16 3 -16 14 -79 24 -138
16 -99 19 -108 38 -105 17 2 29 26 66 135 42 123 69 173 93 173 6 0 2 -6 -9
-14 -11 -9 -39 -71 -69 -157 -47 -136 -52 -144 -80 -150 l-30 -7 32 -1 c35 -1
32 -8 104 203 22 66 39 100 50 103 10 3 17 12 16 21 -1 13 -11 17 -49 17 -50
0 -56 -3 -37 -22 13 -13 -39 -185 -54 -176 -5 3 -7 -3 -3 -13 3 -11 2 -25 -3
-33 -6 -9 -13 11 -21 60 -6 41 -16 92 -21 114 -7 34 -5 42 11 55 18 14 16 15
-36 15 -31 0 -58 -3 -61 -7z m74 -140 c-3 -8 -6 -5 -6 6 -1 11 2 17 5 13 3 -3
4 -12 1 -19z m43 -128 c0 -5 -6 -12 -12 -16 -7 -4 -10 -4 -6 1 4 4 3 14 -4 22
-8 11 -7 12 6 7 9 -3 16 -10 16 -14z"/>
<path d="M3255 1041 c3 -8 -13 -71 -35 -140 -31 -94 -48 -132 -68 -148 l-27
-23 60 0 c81 1 143 16 182 46 76 57 117 192 75 244 -18 22 -30 26 -106 30 -72
4 -85 3 -81 -9z m146 -34 c25 -46 -24 -187 -80 -226 -30 -22 -101 -37 -101
-23 0 12 83 257 91 268 13 17 78 4 90 -19z m36 -69 c-3 -8 -6 -5 -6 6 -1 11 2
17 5 13 3 -3 4 -12 1 -19z"/>
<path d="M3281 899 c-24 -66 -41 -123 -38 -125 2 -2 22 49 44 113 37 109 42
118 69 124 l29 7 -31 1 c-31 1 -31 1 -73 -120z"/>
<path d="M3805 1040 c7 -22 -55 -104 -68 -91 -7 7 -18 2 -34 -17 -20 -24 -21
-28 -8 -38 14 -10 10 -19 -28 -65 -24 -30 -59 -65 -78 -77 l-34 -24 68 4 c37
1 67 0 67 -4 0 -4 -28 -9 -62 -11 l-63 -3 72 -2 71 -2 -11 31 c-10 26 -9 36
12 71 12 22 18 37 12 34 -6 -4 -11 -3 -11 3 0 26 20 17 31 -14 7 -19 17 -35
22 -35 4 0 5 -6 1 -12 -4 -7 5 -2 19 11 27 25 35 37 17 26 -5 -3 -10 -1 -10 4
0 6 2 11 4 11 2 0 11 2 18 5 10 4 15 -5 17 -37 2 -34 -2 -46 -21 -60 -23 -17
-23 -18 35 -18 39 0 57 4 57 13 0 8 4 7 10 -3 8 -13 -1 -16 -58 -21 l-67 -5
79 -2 78 -2 -14 23 c-9 12 -22 22 -29 22 -10 0 -15 18 -17 68 -3 62 -1 67 18
67 14 0 20 7 20 21 0 11 5 17 10 14 6 -3 10 -15 10 -26 0 -14 -7 -19 -25 -19
-24 0 -25 -3 -25 -55 0 -30 3 -55 8 -55 4 0 5 22 4 50 -4 48 -3 50 22 50 22 0
26 4 26 29 0 28 -22 47 -40 36 -4 -3 -10 14 -12 38 -3 33 0 46 16 60 17 15 18
18 4 13 -10 -3 -18 -2 -18 2 0 4 -22 7 -50 7 -40 0 -49 -3 -45 -15z m89 -10
c-6 -6 -9 -33 -6 -60 3 -29 0 -50 -5 -50 -11 0 -17 95 -8 111 4 5 11 9 18 9 8
0 8 -3 1 -10z m-75 -76 c0 -26 4 -51 7 -56 3 -5 -2 -15 -12 -23 -16 -11 -20
-10 -32 6 -11 17 -10 23 8 49 12 17 19 30 16 30 -2 0 -14 -13 -26 -30 -17 -24
-19 -33 -10 -50 6 -12 10 -26 7 -33 -2 -6 -10 3 -19 20 -15 30 -15 32 20 82
20 28 36 51 37 51 1 0 3 -21 4 -46z m-84 -24 c3 -5 1 -10 -4 -10 -6 0 -11 5
-11 10 0 6 2 10 4 10 3 0 8 -4 11 -10z m-34 -114 c-7 -8 -16 -27 -21 -43 -7
-25 -8 -25 -9 -5 -1 24 28 76 37 68 3 -3 -1 -12 -7 -20z m89 0 c0 -3 -4 -8
-10 -11 -5 -3 -10 -1 -10 4 0 6 5 11 10 11 6 0 10 -2 10 -4z"/>
<path d="M4414 1046 c-40 -18 -74 -66 -74 -105 0 -33 11 -41 105 -73 32 -11
41 -19 43 -41 5 -42 -36 -77 -91 -77 -45 0 -45 0 -49 50 -1 11 -6 20 -10 20
-11 0 -10 -18 2 -41 6 -11 7 -19 1 -19 -11 0 -21 24 -21 53 -1 22 -1 22 -16 2
-8 -11 -25 -32 -38 -46 l-24 -25 31 -1 c18 0 59 -4 93 -8 47 -6 67 -4 91 8 64
34 100 104 74 145 -5 8 -37 24 -72 36 -75 25 -87 49 -45 91 29 28 86 34 106
11 10 -13 7 -13 -20 -3 -25 9 -36 9 -58 -4 -28 -15 -40 -45 -25 -60 5 -5 9 3
8 18 0 55 94 54 109 -1 6 -19 9 -18 41 19 19 22 34 44 35 49 0 5 -12 -7 -27
-27 -16 -20 -32 -36 -37 -37 -4 0 3 15 17 34 l26 33 -52 7 c-72 8 -87 7 -123
-8z m-29 -117 c11 -17 -1 -21 -15 -4 -8 9 -8 15 -2 15 6 0 14 -5 17 -11z"/>
<path d="M410 1027 c-10 -21 -11 -30 -2 -39 20 -20 36 5 24 39 l-9 28 -13 -28z"/>
<path d="M944 1034 c-4 -10 -9 -22 -10 -25 -2 -4 3 -12 10 -19 22 -18 39 19
20 44 -13 19 -14 19 -20 0z"/>
<path d="M2674 1036 c-71 -31 -145 -164 -129 -234 9 -41 67 -92 102 -91 26 2
26 2 -7 9 l-35 7 33 2 c52 2 95 25 135 72 67 78 85 199 34 234 -26 18 -91 19
-133 1z m105 -15 c33 -21 -17 -190 -73 -246 -27 -27 -83 -34 -104 -13 -18 18
-15 66 10 136 29 82 74 132 119 132 19 0 40 -4 48 -9z m-193 -137 c-4 -9 -9
-15 -11 -12 -3 3 -3 13 1 22 4 9 9 15 11 12 3 -3 3 -13 -1 -22z m205 -17 c-10
-9 -11 -8 -5 6 3 10 9 15 12 12 3 -3 0 -11 -7 -18z"/>
<path d="M2687 996 c-53 -49 -98 -187 -73 -221 9 -12 10 -6 8 27 -8 96 67 215
129 206 15 -3 26 -1 23 4 -10 17 -62 7 -87 -16z"/>
<path d="M3055 1040 c-3 -6 1 -7 9 -4 18 7 21 14 7 14 -6 0 -13 -4 -16 -10z"/>
<path d="M577 1027 c4 -6 0 -8 -10 -4 -9 3 -19 2 -22 -4 -4 -5 2 -12 11 -16
10 -4 19 -2 22 5 2 7 8 10 12 7 5 -3 11 -1 14 4 3 5 -3 11 -14 14 -13 3 -18 1
-13 -6z"/>
<path d="M2552 1023 c-32 -27 -106 -252 -93 -280 10 -21 8 -22 -52 -26 l-62
-3 68 -2 c68 -2 76 3 56 36 -14 23 72 268 93 266 8 -1 15 5 15 12 0 18 -1 18
-25 -3z"/>
<path d="M2843 1010 c35 -86 -31 -227 -128 -271 -22 -10 -34 -19 -27 -19 49
-1 130 83 162 166 24 64 22 116 -5 143 -15 15 -15 13 -2 -19z"/>
<path d="M3033 1000 c4 -19 9 -54 13 -78 4 -23 10 -44 14 -47 9 -5 -17 145
-26 154 -4 3 -4 -10 -1 -29z"/>
<path d="M4145 998 c-53 -49 -93 -184 -67 -224 4 -7 7 16 8 50 1 45 8 75 28
113 34 67 66 91 103 74 23 -11 25 -10 13 3 -19 24 -47 19 -85 -16z"/>
<path d="M359 997 c-11 -23 -10 -30 3 -43 13 -13 16 -13 27 0 10 12 9 20 -2
43 l-15 28 -13 -28z"/>
<path d="M844 1005 c-19 -13 -19 -14 1 -21 11 -4 27 -13 35 -19 21 -17 89 -24
83 -9 -2 7 -13 10 -24 7 -11 -3 -19 0 -19 6 0 7 5 9 12 5 6 -4 8 -3 5 3 -4 6
-18 8 -32 5 -18 -3 -25 0 -25 11 0 23 -15 28 -36 12z"/>
<path d="M984 995 c-3 -14 -3 -33 0 -42 11 -28 40 9 32 41 -8 33 -24 33 -32 1z"/>
<path d="M1605 1010 c15 -25 5 -100 -20 -155 -30 -62 -75 -104 -132 -122 -33
-10 -35 -12 -11 -12 32 -1 103 51 136 99 46 68 62 176 29 197 -6 4 -7 1 -2 -7z"/>
<path d="M3469 1003 c16 -31 14 -55 -10 -118 -25 -68 -71 -122 -119 -143 -19
-8 -75 -18 -125 -22 l-90 -7 71 -1 c39 -1 93 5 121 13 69 20 134 91 157 167
20 70 20 89 0 114 -15 18 -15 18 -5 -3z"/>
<path d="M500 995 c0 -13 -26 -21 -53 -16 -5 1 -5 -4 -1 -10 5 -9 2 -10 -10
-6 -12 5 -25 -2 -43 -23 l-25 -31 -17 33 c-20 40 -41 48 -41 16 0 -12 4 -29 9
-37 12 -19 48 -21 62 -4 10 11 14 10 25 -4 10 -14 17 -16 30 -7 32 19 30 37
-4 32 -17 -2 -29 -1 -26 4 3 4 23 8 44 8 22 0 43 6 47 13 4 8 16 17 26 20 10
4 15 11 12 17 -10 15 -35 12 -35 -5z"/>
<path d="M1026 954 c-12 -18 -15 -29 -8 -36 6 -6 8 -17 4 -26 -4 -11 1 -9 15
5 25 25 34 49 27 68 -8 21 -16 18 -38 -11z"/>
<path d="M917 933 c-10 -9 13 -33 33 -33 24 0 32 11 19 27 -12 14 -41 18 -52
6z"/>
<path d="M1072 917 c-12 -13 -22 -31 -22 -41 0 -9 -4 -14 -10 -11 -5 3 -10 1
-10 -5 0 -15 42 -2 58 18 10 14 18 62 9 62 -2 0 -13 -10 -25 -23z"/>
<path d="M270 921 c0 -27 21 -59 42 -64 18 -5 20 -9 10 -19 -9 -9 -17 -7 -35
10 -29 27 -37 28 -37 3 0 -28 11 -51 24 -51 19 0 72 51 59 56 -7 3 -9 12 -6
20 3 8 -3 24 -12 34 -19 21 -45 27 -45 11z"/>
<path d="M2951 923 c-1 -6 -4 -20 -7 -30 -5 -17 -5 -17 6 0 6 10 9 23 6 30 -3
9 -5 9 -5 0z"/>
<path d="M355 876 c2 -12 4 -24 4 -28 2 -16 38 -7 56 12 19 21 16 24 -37 33
-23 3 -27 1 -23 -17z"/>
<path d="M4265 891 c-3 -5 -2 -12 3 -15 5 -3 9 1 9 9 0 17 -3 19 -12 6z"/>
<path d="M4340 886 c18 -16 143 -59 135 -46 -3 6 -30 17 -60 26 -30 8 -57 20
-60 25 -4 5 -11 9 -18 9 -7 0 -6 -5 3 -14z"/>
<path d="M954 879 c-9 -14 24 -41 46 -37 8 2 15 12 15 23 0 23 -48 34 -61 14z"/>
<path d="M2226 834 c-10 -31 -16 -58 -14 -60 3 -2 12 21 22 52 10 31 16 58 14
60 -3 2 -12 -21 -22 -52z"/>
<path d="M4551 859 c-1 -44 -35 -96 -79 -122 -34 -20 -68 -23 -167 -14 -33 2
-46 3 -30 1 17 -3 49 -9 73 -14 56 -14 111 1 159 43 45 39 66 87 54 119 -9 21
-10 19 -10 -13z"/>
<path d="M1092 854 c-26 -18 -29 -42 -6 -51 19 -7 44 21 44 49 0 22 -9 23 -38
2z"/>
<path d="M2921 833 c-16 -58 -12 -75 5 -19 9 26 13 50 10 53 -2 3 -9 -12 -15
-34z"/>
<path d="M578 852 c-54 -1 -98 -5 -98 -7 0 -9 73 -100 80 -100 8 0 123 106
118 109 -2 0 -47 0 -100 -2z m-2 -60 c-15 -15 -17 -15 -33 0 -17 18 -17 18 27
31 22 6 25 -12 6 -31z"/>
<path d="M803 850 l-81 -5 48 -54 49 -55 20 25 c11 13 20 19 21 12 0 -6 -4
-15 -10 -18 -5 -3 -10 -11 -10 -16 0 -6 5 -7 12 -3 16 10 131 5 143 -7 5 -5
-25 -9 -80 -9 l-90 0 -33 -88 c-18 -48 -44 -114 -58 -146 -13 -33 -23 -61 -21
-62 3 -3 82 77 240 242 l58 60 -46 68 c-25 37 -45 63 -45 56 0 -6 -7 -8 -17
-3 -10 4 -55 6 -100 3z m34 -33 c-15 -5 -25 -13 -21 -18 8 -13 -10 -11 -24 3
-17 17 -15 33 2 19 11 -9 17 -9 28 2 7 8 19 12 27 9 11 -4 7 -8 -12 -15z m78
12 c4 -5 1 -9 -6 -9 -8 0 -9 -11 -5 -32 4 -23 3 -28 -4 -18 -5 8 -15 15 -22
16 -42 3 -43 4 -25 15 9 5 17 16 17 22 0 15 37 20 45 6z m20 -37 c-3 -3 -11 0
-18 7 -9 10 -8 11 6 5 10 -3 15 -9 12 -12z m-14 -122 c-14 -14 -34 -27 -43
-28 -42 -4 -47 -6 -43 -13 3 -4 15 -5 26 -2 19 5 20 4 10 -16 -7 -11 -14 -21
-17 -21 -3 0 -2 5 1 10 3 6 -3 10 -14 10 -12 0 -21 -5 -21 -11 0 -5 5 -7 10
-4 6 3 10 2 10 -4 0 -15 -13 -19 -35 -10 -11 4 -14 8 -7 8 7 1 12 7 11 14 -3
17 28 84 41 89 6 1 30 3 53 4 l43 1 -25 -27z m-119 -114 c7 4 8 2 4 -5 -9 -13
-26 -5 -25 12 0 9 2 8 6 -1 2 -6 10 -9 15 -6z"/>
<path d="M417 800 c-21 -28 -40 -57 -43 -64 -3 -8 54 -73 145 -164 83 -83 151
-150 151 -149 0 1 -27 67 -59 147 l-59 145 -86 3 c-51 2 -86 7 -86 13 0 7 29
9 80 7 82 -3 91 0 65 22 -8 7 -25 30 -37 51 -12 22 -24 39 -28 39 -3 0 -23
-23 -43 -50z m55 -4 c6 4 8 2 4 -4 -3 -6 -1 -14 5 -18 8 -5 8 -9 -2 -14 -18
-12 -41 0 -35 19 4 11 2 10 -9 -3 -8 -11 -15 -16 -15 -11 0 15 34 47 38 36 2
-6 9 -8 14 -5z m30 -101 c10 2 20 -1 24 -6 3 -5 10 -6 16 -3 6 4 8 -1 3 -16
-5 -17 -4 -21 6 -15 11 6 12 5 2 -6 -14 -14 -17 -30 -5 -28 21 4 28 -3 27 -23
-2 -13 4 -34 13 -48 14 -23 14 -24 -1 -12 -9 8 -19 22 -22 33 -4 11 -11 17
-16 14 -5 -4 -6 2 -2 12 6 16 5 17 -12 3 -17 -14 -18 -13 -13 13 4 20 2 25 -5
18 -18 -18 -31 -13 -16 6 8 9 9 14 3 10 -6 -3 -26 7 -45 24 -30 27 -31 30 -10
24 18 -6 22 -4 15 6 -6 11 -5 12 7 3 8 -6 22 -10 31 -9z"/>
<path d="M638 797 c-32 -29 -58 -55 -58 -58 0 -2 52 -4 115 -4 l114 0 -56 58
c-32 31 -58 57 -58 57 0 0 -26 -24 -57 -53z m78 -4 c21 -28 17 -33 -26 -33
-45 0 -51 10 -17 33 28 20 27 20 43 0z"/>
<path d="M4241 813 c-18 -44 -53 -73 -113 -95 -49 -18 -50 -19 -13 -13 22 4
52 14 68 23 32 20 81 86 75 103 -2 7 -10 -1 -17 -18z"/>
<path d="M328 819 c-10 -5 -23 -20 -28 -32 -10 -19 -9 -20 2 -6 10 12 17 14
30 5 13 -8 22 -6 37 8 12 11 21 23 21 28 0 11 -41 10 -62 -3z"/>
<path d="M992 808 c17 -26 58 -37 58 -16 1 8 6 6 15 -6 12 -16 15 -17 15 -4 0
21 -43 48 -76 48 -25 0 -26 -1 -12 -22z"/>
<path d="M220 790 c0 -23 25 -60 41 -60 13 0 20 -10 25 -35 3 -19 10 -37 14
-40 14 -9 37 6 49 31 11 24 10 25 -24 18 -34 -6 -35 -6 -41 34 -5 33 -12 43
-35 51 -17 6 -29 6 -29 1z"/>
<path d="M1111 781 c-7 -5 -15 -26 -16 -47 -1 -22 0 -31 2 -21 2 9 11 17 18
17 14 0 45 37 45 52 0 11 -32 10 -49 -1z"/>
<path d="M2304 745 c-17 -19 -26 -35 -20 -35 6 0 21 16 34 35 28 44 25 44 -14
0z"/>
<path d="M312 758 c-16 -16 -15 -35 3 -42 20 -7 60 35 43 46 -18 11 -32 10
-46 -4z"/>
<path d="M1015 760 c-9 -15 13 -40 35 -40 10 0 24 8 31 18 7 9 10 14 5 10 -5
-4 -15 -1 -23 7 -17 17 -39 19 -48 5z"/>
<path d="M4040 720 c8 -5 20 -10 25 -10 6 0 3 5 -5 10 -8 5 -19 10 -25 10 -5
0 -3 -5 5 -10z"/>
<path d="M200 712 c0 -18 33 -52 50 -52 10 0 21 -8 23 -17 2 -10 3 -3 1 16 -2
19 -7 37 -11 41 -13 12 -63 21 -63 12z"/>
<path d="M574 703 c4 -10 32 -82 63 -161 l57 -142 17 55 c9 30 19 60 22 67 2
7 5 15 6 18 0 3 17 43 36 90 19 46 35 86 35 87 0 2 -54 3 -121 3 -111 0 -121
-1 -115 -17z m118 -10 c30 3 61 1 69 -4 8 -5 10 -9 4 -9 -5 0 -3 -5 5 -11 11
-8 9 -9 -10 -3 -21 6 -23 5 -13 -8 10 -12 9 -14 -9 -14 -16 1 -21 -5 -22 -27
-1 -16 2 -31 6 -33 4 -3 5 -11 2 -19 -4 -8 -9 -13 -13 -10 -4 2 -7 -6 -6 -18
3 -33 -5 -40 -22 -20 -8 10 -11 12 -7 4 4 -9 3 -12 -3 -8 -6 4 -9 20 -7 37 2
18 -1 29 -7 27 -6 -1 -15 8 -20 21 -7 19 -5 25 14 33 21 9 20 9 -5 6 -15 -2
-25 -1 -23 4 3 4 1 10 -5 14 -6 4 -8 11 -5 16 4 5 1 9 -5 9 -7 0 -6 5 2 14 9
9 15 10 20 3 3 -6 27 -8 60 -4z m53 -66 c11 -11 10 -15 -4 -24 -13 -8 -16 -6
-16 13 0 28 2 29 20 11z"/>
<path d="M676 614 c-4 -9 -4 -19 -1 -22 3 -3 5 0 5 7 0 7 4 9 10 6 6 -3 7 1 4
9 -8 20 -10 20 -18 0z"/>
<path d="M1130 707 c-14 -7 -26 -18 -26 -25 -3 -25 -6 -26 -14 -6 -5 13 -21
24 -41 28 -42 8 -44 5 -18 -28 15 -19 27 -25 40 -21 15 5 19 1 19 -16 0 -16
-3 -19 -12 -11 -7 5 -23 12 -34 16 -19 6 -21 3 -16 -19 5 -27 35 -50 52 -40 5
3 12 21 16 40 5 28 11 35 30 35 22 0 44 25 44 49 0 14 -9 14 -40 -2z"/>
<path d="M1303 713 c20 -2 54 -2 75 0 20 2 3 4 -38 4 -41 0 -58 -2 -37 -4z"/>
<path d="M1254 679 c-3 -6 -2 -15 3 -20 5 -5 685 -8 1699 -7 1493 3 1689 5
1689 18 0 13 -196 15 -1692 18 -1213 1 -1694 -1 -1699 -9z"/>
<path d="M312 634 c-24 -16 -29 -39 -11 -49 14 -9 49 24 49 47 0 22 -9 23 -38
2z"/>
<path d="M200 612 c0 -18 40 -44 56 -38 10 4 21 1 26 -6 6 -10 8 -10 8 -1 0
24 -34 53 -62 53 -16 0 -28 -4 -28 -8z"/>
<path d="M1100 595 c-7 -14 -10 -28 -7 -32 4 -3 7 -2 7 4 0 6 9 9 20 6 20 -5
60 21 60 39 0 4 -15 8 -33 8 -26 0 -37 -6 -47 -25z"/>
<path d="M1250 605 c0 -13 196 -15 1700 -15 1504 0 1700 2 1700 15 0 13 -196
15 -1700 15 -1504 0 -1700 -2 -1700 -15z"/>
<path d="M322 574 c-12 -8 -22 -24 -22 -35 0 -28 35 -24 48 6 22 47 13 57 -26
29z"/>
<path d="M1016 568 c9 -31 24 -48 40 -48 8 0 14 -4 14 -8 0 -14 66 -8 84 7 13
11 14 16 4 23 -21 13 -77 6 -71 -9 3 -7 0 -13 -6 -13 -6 0 -11 9 -11 19 0 19
-34 51 -53 51 -5 0 -5 -10 -1 -22z"/>
<path d="M5015 580 c-3 -5 -1 -10 4 -10 6 0 11 5 11 10 0 6 -2 10 -4 10 -3 0
-8 -4 -11 -10z"/>
<path d="M5630 586 c0 -2 8 -10 18 -17 15 -13 16 -12 3 4 -13 16 -21 21 -21
13z"/>
<path d="M5675 580 c3 -5 8 -10 11 -10 2 0 4 5 4 10 0 6 -5 10 -11 10 -5 0 -7
-4 -4 -10z"/>
<path d="M215 541 c-9 -16 36 -41 62 -35 14 4 23 2 23 -5 0 -6 -13 -11 -29
-11 -39 0 -46 -13 -20 -36 18 -17 23 -17 62 -4 28 10 46 24 55 43 18 37 9 44
-24 23 -18 -12 -24 -24 -21 -37 3 -10 1 -19 -4 -19 -5 0 -10 6 -10 13 -3 27
-5 33 -19 55 -15 22 -63 31 -75 13z"/>
<path d="M1003 498 c16 -39 78 -65 115 -48 13 6 22 16 20 23 -7 20 -50 21 -65
1 -12 -16 -13 -16 -19 2 -10 27 -35 54 -51 54 -11 0 -11 -5 0 -32z"/>
<path d="M1493 471 c-35 -22 -73 -86 -73 -125 0 -33 25 -56 63 -57 l32 -1 -30
-9 c-27 -7 -26 -8 10 -4 29 3 48 14 75 41 19 20 29 33 21 29 -11 -7 -13 -4 -6
11 14 33 22 121 10 122 -5 1 -23 4 -40 7 -20 4 -40 -1 -62 -14z m83 -14 c12
-11 -26 -114 -50 -136 -33 -31 -76 -23 -76 15 0 29 25 92 46 115 14 16 67 20
80 6z m-16 -142 c-13 -14 -27 -25 -32 -25 -9 0 42 49 51 50 3 0 -6 -11 -19
-25z"/>
<path d="M1505 450 c-3 -6 1 -7 9 -4 18 7 21 14 7 14 -6 0 -13 -4 -16 -10z"/>
<path d="M1485 419 c-4 -6 -5 -12 -2 -15 2 -3 7 2 10 11 7 17 1 20 -8 4z"/>
<path d="M1462 340 c0 -14 2 -19 5 -12 2 6 2 18 0 25 -3 6 -5 1 -5 -13z"/>
<path d="M1666 480 c14 -14 -36 -158 -61 -177 -17 -12 -16 -13 12 -13 27 0 30
3 25 22 -3 13 -1 19 5 15 7 -5 9 0 6 13 -3 11 -1 20 3 20 5 0 10 14 11 30 1
17 6 38 11 46 7 12 13 -7 22 -65 9 -59 16 -81 27 -81 8 0 17 9 20 20 3 11 10
17 16 13 6 -3 7 -1 3 5 -9 15 4 63 15 56 5 -3 6 3 2 12 -4 11 -3 15 4 11 7 -4
9 0 6 11 -3 12 4 23 21 32 14 7 24 15 21 18 -2 3 -13 -1 -22 -9 -15 -11 -15
-10 1 9 l19 22 -33 0 c-24 0 -31 -3 -23 -11 7 -7 4 -31 -11 -79 -12 -39 -24
-70 -27 -70 -4 0 -10 28 -15 63 -11 85 -11 82 10 79 11 -2 15 1 11 7 -3 6 -25
11 -48 11 -28 0 -38 -3 -31 -10z"/>
<path d="M1857 479 c8 -8 5 -30 -13 -83 -27 -77 -25 -111 6 -121 46 -15 123
27 104 56 -4 7 -3 10 3 6 6 -4 11 4 11 19 0 15 5 30 12 34 7 4 9 13 5 20 -6 9
-4 11 5 5 10 -6 12 -4 7 9 -7 18 26 59 39 48 4 -4 4 -1 0 6 -4 6 -21 12 -38
12 -24 0 -29 -3 -24 -17 9 -22 -31 -140 -55 -164 -23 -23 -57 -25 -65 -4 -7
18 4 67 14 61 4 -2 7 8 8 23 1 36 27 87 43 83 7 -1 10 2 6 8 -3 5 -23 10 -43
10 -26 0 -33 -3 -25 -11z"/>
<path d="M2140 452 c-43 -42 -64 -101 -50 -138 5 -13 14 -24 20 -24 6 0 9 -4
6 -8 -3 -5 9 -7 27 -5 29 2 30 2 7 -6 -21 -8 -22 -9 -5 -10 23 0 62 19 67 34
2 6 6 9 10 8 11 -4 30 36 23 47 -4 6 -21 -6 -39 -25 -48 -50 -86 -43 -86 17 0
33 20 79 31 72 5 -3 6 2 3 11 -4 9 -3 15 2 14 5 -1 25 5 44 14 19 9 28 16 20
17 -9 0 -26 -7 -38 -16 -13 -9 -22 -11 -22 -4 0 14 45 34 64 27 8 -3 16 -15
18 -27 3 -21 22 -29 24 -10 1 6 2 15 3 21 0 5 6 7 11 4 6 -3 10 -2 10 3 0 10
-47 22 -87 22 -16 0 -40 -14 -63 -38z"/>
<path d="M2355 475 c-39 -21 -62 -51 -76 -98 -14 -52 7 -86 54 -88 l32 -1 -30
-8 c-26 -7 -27 -8 -7 -9 13 0 39 6 58 15 37 18 57 38 27 27 -17 -6 -17 -5 1
15 10 12 23 20 28 19 6 -1 13 5 15 13 4 13 3 13 -6 0 -12 -17 -15 -1 -5 25 6
13 9 14 16 3 8 -12 4 18 -9 66 -4 13 -1 16 8 11 8 -5 10 -4 6 0 -4 5 -13 10
-20 12 -52 12 -65 12 -92 -2z m68 -45 c-2 -46 -31 -105 -58 -120 -27 -14 -53
-8 -61 15 -8 20 19 101 33 98 6 -1 19 8 29 20 l19 22 -22 -19 c-13 -11 -23
-14 -23 -8 0 16 26 28 57 26 25 -1 28 -5 26 -34z m-28 -130 c-3 -5 -12 -10
-18 -10 -7 0 -6 4 3 10 19 12 23 12 15 0z"/>
<path d="M2326 395 c-9 -26 -7 -32 5 -12 6 10 9 21 6 23 -2 3 -7 -2 -11 -11z"/>
<path d="M2531 463 c6 -15 16 -59 23 -98 9 -52 16 -71 29 -73 11 -2 17 3 17
15 0 15 2 16 10 3 8 -11 9 -7 4 15 -4 24 -3 27 6 15 9 -12 10 -11 5 6 -7 26 3
56 16 48 6 -3 7 5 3 20 -4 19 0 31 20 50 l25 26 -37 0 c-24 0 -32 -3 -24 -9
12 -7 10 -21 -9 -80 -26 -80 -32 -76 -44 24 -7 51 -6 57 8 52 9 -3 19 -3 21 2
3 4 -15 8 -39 10 l-45 2 11 -28z"/>
<path d="M2715 480 c13 -20 -6 -78 -28 -84 -16 -4 -18 -8 -8 -19 13 -16 -1
-65 -22 -79 -7 -5 7 -7 30 -6 23 1 40 6 37 10 -3 5 -10 5 -16 2 -10 -6 -6 11
13 64 10 25 44 30 53 7 3 -8 10 -15 17 -15 6 0 8 7 5 17 -4 9 -1 20 6 24 7 4
9 11 5 15 -4 4 -13 2 -19 -4 -7 -7 -23 -12 -36 -12 -18 0 -23 4 -18 16 3 9 6
19 6 22 0 4 5 0 10 -8 8 -11 9 -9 5 11 -6 25 -4 26 30 24 37 -2 59 -20 48 -39
-3 -5 -1 -6 6 -2 7 4 10 13 8 19 -2 7 2 20 11 30 14 16 10 17 -67 17 -51 0
-80 -4 -76 -10z"/>
<path d="M2887 479 c14 -14 -31 -158 -55 -176 -13 -11 -10 -13 21 -13 20 0 37
5 37 11 0 5 -5 7 -12 3 -8 -5 -9 -2 -5 10 4 10 7 21 7 24 0 4 5 0 11 -8 8 -12
9 -10 4 8 -9 31 4 70 16 51 6 -9 7 -4 3 15 -5 19 -3 27 4 22 6 -4 8 2 5 15 -4
15 0 22 16 26 32 8 15 23 -27 23 -26 0 -33 -3 -25 -11z"/>
<path d="M3020 472 c-39 -21 -80 -84 -80 -123 0 -44 28 -59 106 -58 38 0 63 3
57 6 -7 2 -13 11 -13 19 0 9 4 13 9 10 5 -3 12 1 15 10 9 24 7 31 -4 14 -6 -9
-10 -10 -10 -3 0 7 10 21 22 33 l22 20 -58 0 c-35 0 -55 4 -51 10 3 6 1 10 -4
10 -6 0 -11 -7 -11 -15 0 -10 11 -15 38 -16 l37 -2 -40 -7 c-40 -7 -40 -7 -6
-9 27 -1 32 -4 26 -18 -4 -10 -10 -26 -12 -35 -7 -24 -55 -23 -77 1 -15 16
-16 25 -7 58 9 33 51 91 51 70 0 -3 15 0 34 8 36 15 46 12 46 -17 0 -10 5 -18
10 -18 6 0 10 6 10 14 0 8 7 16 15 20 23 8 18 24 -7 24 -13 1 -36 4 -53 7 -20
4 -42 0 -65 -13z m40 -6 c0 -2 -7 -7 -16 -10 -8 -3 -12 -2 -9 4 6 10 25 14 25
6z"/>
<path d="M3207 479 c7 -7 3 -30 -14 -76 -30 -82 -27 -114 9 -127 31 -11 88 9
88 30 0 8 4 14 10 14 5 0 6 7 3 17 -4 11 -3 14 5 9 8 -4 10 -2 6 7 -3 8 -1 18
5 21 6 4 7 14 4 23 -4 11 -3 14 5 9 8 -5 10 -1 5 10 -4 12 -3 15 5 10 8 -5 10
-1 5 10 -4 11 2 23 18 35 l24 19 -39 0 c-31 0 -36 -3 -27 -13 8 -11 6 -27 -8
-68 -30 -87 -43 -109 -67 -115 -49 -13 -54 11 -22 107 21 65 34 83 52 72 5 -3
6 -1 2 5 -4 7 -24 12 -44 12 -25 0 -33 -3 -25 -11z"/>
<path d="M3430 477 c-14 -7 -25 -16 -26 -22 -3 -39 -19 -75 -33 -76 -9 0 -11
-3 -4 -5 13 -6 -3 -64 -21 -76 -6 -4 7 -7 29 -7 22 0 34 3 28 6 -7 2 -13 11
-13 19 0 9 5 12 12 8 7 -4 8 -3 4 5 -12 18 4 51 24 51 23 0 30 -27 20 -79 -7
-41 2 -65 14 -35 4 10 14 14 25 11 19 -4 19 -4 0 37 -25 56 -25 80 1 73 13 -3
18 -1 13 6 -4 6 0 8 10 4 10 -4 16 -2 14 6 -1 7 3 11 10 10 8 -2 10 4 6 14 -5
11 -3 14 6 8 10 -6 11 -3 2 14 -22 40 -72 52 -121 28z m65 -16 c-4 5 -1 9 4 9
6 0 11 -11 11 -25 0 -25 -41 -55 -75 -55 -18 0 -19 7 -4 48 9 28 13 30 40 22
18 -5 27 -5 24 1z"/>
<path d="M3673 478 c4 -13 -29 -63 -41 -63 -16 -1 -31 -17 -26 -29 6 -15 -38
-71 -67 -86 -15 -8 -21 -5 -33 17 -8 16 -15 23 -16 17 0 -6 9 -23 21 -38 17
-21 28 -26 62 -24 l42 1 -45 7 -45 7 37 1 c28 2 36 6 32 16 -3 8 2 26 12 41
l17 27 14 -26 c8 -14 16 -26 19 -26 3 0 3 4 -1 9 -3 6 4 15 15 21 18 10 20 8
20 -19 0 -16 -6 -32 -12 -34 -7 -3 6 -6 30 -6 27 -1 41 3 37 9 -4 6 -11 8 -16
5 -5 -4 -9 12 -9 34 0 30 5 43 20 51 11 6 18 16 14 21 -4 7 -10 7 -17 0 -19
-19 -24 -12 -17 27 3 21 11 36 18 35 7 -2 12 2 12 7 0 6 -18 10 -41 10 -28 0
-39 -4 -36 -12z m15 -62 c2 -41 -31 -79 -42 -49 -7 16 21 83 35 83 3 0 6 -15
7 -34z"/>
<path d="M3820 478 c0 -7 5 -20 10 -28 8 -13 11 -13 22 -1 11 11 11 13 -1 6
-9 -5 -12 -4 -7 3 7 11 46 13 46 2 0 -20 -52 -155 -63 -162 -7 -4 5 -7 28 -7
22 0 34 3 28 6 -7 2 -13 11 -13 19 0 9 5 12 12 8 7 -4 8 -3 4 5 -10 16 13 83
26 75 6 -4 8 2 3 16 -5 14 -3 20 3 16 6 -3 8 2 5 13 -4 15 0 19 21 17 14 0 26
-7 26 -13 0 -7 5 -13 10 -13 6 0 9 5 8 12 -2 7 3 12 10 13 6 0 12 5 12 10 0 6
-40 11 -95 13 -72 2 -95 0 -95 -10z"/>
<path d="M4052 470 c-34 -21 -71 -87 -72 -126 0 -28 30 -54 66 -55 l29 -1 -30
-8 c-28 -7 -28 -8 -5 -9 29 -1 75 20 75 34 1 6 11 26 23 45 22 35 27 55 23
100 -1 20 0 22 9 10 9 -12 11 -12 8 -1 -2 8 -11 16 -19 18 -58 14 -76 13 -107
-7z m86 -18 c7 -21 -19 -92 -45 -122 -47 -56 -96 -24 -75 48 19 62 46 90 84
87 18 -1 34 -7 36 -13z m-33 -152 c-3 -5 -12 -10 -18 -10 -7 0 -6 4 3 10 19
12 23 12 15 0z"/>
<path d="M4064 438 l-19 -23 23 19 c12 11 22 21 22 23 0 8 -8 2 -26 -19z"/>
<path d="M4021 344 c0 -11 3 -14 6 -6 3 7 2 16 -1 19 -3 4 -6 -2 -5 -13z"/>
<path d="M4227 478 c13 -18 -37 -176 -57 -182 -8 -2 3 -4 25 -4 22 0 35 2 29
4 -9 4 -8 19 4 54 8 27 19 47 24 44 4 -3 5 3 1 12 -4 10 -2 15 3 11 5 -3 10 6
9 21 0 17 5 27 14 27 8 0 16 6 19 13 2 8 -9 12 -38 12 -32 0 -40 -3 -33 -12z"/>
<path d="M4334 468 c9 -13 21 -59 28 -101 9 -61 15 -77 27 -75 18 4 18 16 -2
111 -13 64 -9 86 12 72 5 -3 12 -2 15 3 3 5 -18 9 -45 11 l-50 2 15 -23z"/>
<path d="M4438 477 c8 -9 5 -28 -9 -67 -10 -30 -16 -66 -14 -80 5 -28 -2 -44
-25 -53 -12 -4 -12 -6 2 -6 21 -1 41 33 33 58 -7 22 4 53 15 46 5 -3 6 5 2 17
-3 13 -1 19 5 15 7 -5 9 0 6 12 -3 13 4 29 21 45 l25 26 -36 0 c-27 0 -33 -3
-25 -13z"/>
<path d="M368 463 c-9 -10 -16 -31 -15 -48 0 -16 2 -24 4 -17 3 6 11 12 18 12
14 0 25 22 25 51 0 24 -12 24 -32 2z"/>
<path d="M970 461 c0 -17 48 -83 51 -70 0 2 2 14 4 25 5 22 -24 64 -44 64 -6
0 -11 -9 -11 -19z"/>
<path d="M2665 460 c-3 -6 1 -7 9 -4 18 7 21 14 7 14 -6 0 -13 -4 -16 -10z"/>
<path d="M3606 462 c-3 -5 1 -9 9 -9 8 0 12 4 9 9 -3 4 -7 8 -9 8 -2 0 -6 -4
-9 -8z"/>
<path d="M2582 440 c0 -14 2 -19 5 -12 2 6 2 18 0 25 -3 6 -5 1 -5 -13z"/>
<path d="M1731 434 c0 -11 3 -14 6 -6 3 7 2 16 -1 19 -3 4 -6 -2 -5 -13z"/>
<path d="M2471 434 c0 -11 3 -14 6 -6 3 7 2 16 -1 19 -3 4 -6 -2 -5 -13z"/>
<path d="M2500 385 c-12 -36 -28 -72 -37 -80 -13 -13 -11 -15 19 -15 23 0 29
3 19 9 -12 8 -12 12 2 26 12 11 15 25 11 42 -4 15 -3 24 2 21 5 -4 10 9 11 28
1 19 0 34 -2 34 -2 0 -13 -29 -25 -65z"/>
<path d="M4310 385 c-12 -36 -28 -72 -37 -80 -13 -13 -11 -15 19 -14 18 0 27
3 21 6 -7 2 -13 11 -13 19 0 9 4 13 9 10 5 -4 7 4 3 16 -4 16 -2 19 8 13 9 -5
11 -4 6 4 -4 6 -2 27 4 47 7 19 10 38 7 40 -3 3 -15 -24 -27 -61z"/>
<path d="M4391 434 c0 -11 3 -14 6 -6 3 7 2 16 -1 19 -3 4 -6 -2 -5 -13z"/>
<path d="M407 426 c-21 -21 -19 -72 3 -89 12 -9 13 -9 3 3 -10 10 -9 16 3 25
10 7 14 23 12 45 -3 32 -4 33 -21 16z"/>
<path d="M945 427 c-11 -28 3 -69 23 -65 24 5 26 31 3 59 -18 22 -20 22 -26 6z"/>
<path d="M4176 415 c-3 -9 -6 -22 -5 -28 0 -7 5 -1 10 12 5 13 8 26 5 28 -2 2
-6 -3 -10 -12z"/>
<path d="M278 406 c-16 -12 -16 -14 7 -26 29 -16 58 -6 53 17 -4 22 -37 27
-60 9z"/>
<path d="M1036 404 c-3 -9 -4 -20 0 -25 8 -14 50 -11 63 5 10 12 8 17 -8 25
-28 15 -48 14 -55 -5z"/>
<path d="M439 377 c-13 -29 -5 -61 14 -55 15 6 22 57 8 71 -7 7 -14 2 -22 -16z"/>
<path d="M729 383 c-13 -16 -12 -17 4 -4 16 13 21 21 13 21 -2 0 -10 -8 -17
-17z"/>
<path d="M907 378 c-8 -30 0 -58 15 -58 6 0 7 -5 2 -13 -5 -7 -1 -4 9 6 22 24
22 39 -1 68 l-19 22 -6 -25z"/>
<path d="M1606 385 c-9 -26 -7 -32 5 -12 6 10 9 21 6 23 -2 3 -7 -2 -11 -11z"/>
<path d="M2216 392 c-3 -5 1 -9 9 -9 8 0 12 4 9 9 -3 4 -7 8 -9 8 -2 0 -6 -4
-9 -8z"/>
<path d="M3745 380 c-19 -8 -19 -9 3 -9 12 -1 22 4 22 9 0 6 -1 10 -2 9 -2 0
-12 -4 -23 -9z"/>
<path d="M1002 368 c2 -7 -2 -12 -9 -13 -7 0 -18 -7 -25 -15 -11 -12 -11 -12
5 -1 15 12 21 9 18 -11 -1 -11 37 -20 59 -13 28 9 25 17 -15 43 -20 12 -34 17
-33 10z"/>
<path d="M2730 370 c0 -5 7 -7 15 -4 8 4 15 8 15 10 0 2 -7 4 -15 4 -8 0 -15
-4 -15 -10z"/>
<path d="M486 354 c-3 -9 -6 -27 -6 -41 0 -15 -10 -33 -25 -45 -29 -23 -33
-48 -7 -48 23 0 55 33 45 45 -5 4 1 5 12 2 20 -7 20 -7 1 8 -16 12 -17 15 -4
15 23 0 27 21 11 53 -16 31 -19 33 -27 11z"/>
<path d="M860 340 c-14 -35 -3 -57 25 -47 11 5 14 14 9 34 -10 43 -20 47 -34
13z"/>
<path d="M2132 345 c0 -16 2 -22 5 -12 2 9 2 23 0 30 -3 6 -5 -1 -5 -18z"/>
<path d="M319 344 c-10 -13 -10 -17 2 -25 24 -15 54 -6 57 19 3 18 -1 22 -21
22 -14 0 -30 -7 -38 -16z"/>
<path d="M538 343 c-2 -4 -4 -26 -4 -48 1 -25 -5 -46 -16 -57 -33 -33 -16 -62
21 -39 17 11 23 61 8 62 -7 0 -2 4 11 10 18 7 22 14 17 31 -9 28 -31 53 -37
41z"/>
<path d="M596 325 c-3 -9 -6 -28 -6 -41 0 -13 -4 -24 -10 -24 -5 0 -10 -5 -10
-11 0 -8 4 -8 14 0 10 9 16 8 25 -3 7 -8 18 -13 25 -10 19 7 10 64 -13 87 -17
17 -19 17 -25 2z"/>
<path d="M747 314 c-11 -14 -17 -34 -14 -44 3 -11 0 -21 -7 -24 -6 -2 -2 -5
10 -5 17 -1 20 -6 16 -31 -4 -25 -1 -30 24 -35 16 -4 35 -8 42 -11 6 -2 12 0
12 4 0 11 -32 56 -45 64 -8 5 -10 25 -7 58 5 55 -4 62 -31 24z"/>
<path d="M810 321 c-16 -31 -12 -48 13 -53 20 -4 22 -1 19 34 -4 42 -16 49
-32 19z"/>
<path d="M377 302 c-24 -27 -21 -32 18 -32 29 0 35 4 35 20 0 18 3 19 23 10
21 -11 21 -10 3 4 -26 21 -59 20 -79 -2z"/>
<path d="M944 305 c-9 -23 5 -35 42 -35 40 0 42 5 12 31 -28 22 -47 24 -54 4z"/>
<path d="M1730 280 c-23 -7 -23 -8 -3 -9 12 -1 25 4 28 9 3 6 5 10 3 9 -2 -1
-14 -5 -28 -9z"/>
<path d="M2585 280 c-19 -8 -19 -9 3 -9 12 -1 22 4 22 9 0 6 -1 10 -2 9 -2 0
-12 -4 -23 -9z"/>
<path d="M880 255 c7 -21 55 -44 66 -32 4 3 -1 18 -10 32 -21 32 -68 33 -56 0z"/>
<path d="M1603 273 c15 -2 37 -2 50 0 12 2 0 4 -28 4 -27 0 -38 -2 -22 -4z"/>
<path d="M2458 273 c12 -2 32 -2 45 0 12 2 2 4 -23 4 -25 0 -35 -2 -22 -4z"/>
<path d="M2663 273 c15 -2 37 -2 50 0 12 2 0 4 -28 4 -27 0 -38 -2 -22 -4z"/>
<path d="M2838 273 c12 -2 32 -2 45 0 12 2 2 4 -23 4 -25 0 -35 -2 -22 -4z"/>
<path d="M3008 273 c23 -2 59 -2 80 0 20 2 1 4 -43 4 -44 0 -61 -2 -37 -4z"/>
<path d="M3353 273 c15 -2 37 -2 50 0 12 2 0 4 -28 4 -27 0 -38 -2 -22 -4z"/>
<path d="M3693 273 c15 -2 37 -2 50 0 12 2 0 4 -28 4 -27 0 -38 -2 -22 -4z"/>
<path d="M3833 273 c15 -2 37 -2 50 0 12 2 0 4 -28 4 -27 0 -38 -2 -22 -4z"/>
<path d="M4203 273 c26 -2 67 -2 90 0 23 2 2 3 -48 3 -49 0 -68 -1 -42 -3z"/>
<path d="M816 243 c-8 -20 21 -53 46 -53 21 0 23 18 5 41 -19 24 -44 30 -51
12z"/>
<path d="M571 214 c-31 -39 -27 -53 11 -45 39 8 57 33 39 55 -18 22 -26 20
-50 -10z"/>
</g>
</svg>
